# xmcd
#
# Track frame offsets:
#	150
#	10804
#	30381
#	42282
#	62052
#	74558
#	89392
#	99537
#	117162
#	133829
#
# Disc length: 2035 seconds
#
# Revision: 0
# Processed by: cddbd v1.4PL0 Copyright (c) Steve Scherf et al.
# Submitted via: EasyCDDAExtractor 4.6.0.1
#
DISCID=8407f10a
DTITLE=E. Iver Leivestad - One Thing Right
DYEAR=2000
DGENRE=Gospel
TTITLE0=One Thing Right
TTITLE1=Devoted to You
TTITLE2=Thank God I'm Just a Country Boy
TTITLE3=Make a Joyful Noise
TTITLE4=Getting Back to You
TTITLE5=Roll on Little Doggie
TTITLE6=Cowboy Yodelin' Song
TTITLE7=The Storm
TTITLE8=At the End of the Trail
TTITLE9=The Old Rugged Cross Medley
EXTD=
EXTT0=
EXTT1=
EXTT2=
EXTT3=
EXTT4=
EXTT5=
EXTT6=
EXTT7=
EXTT8=
EXTT9=
PLAYORDER=
